<svg width="1200" height="800" viewBox="0 0 1200 800" fill="none" xmlns="http://www.w3.org/2000/svg">
  <rect width="1200" height="800" fill="#071426"/>
  <rect x="72" y="72" width="1056" height="656" rx="28" fill="#0F1E33" stroke="#1D3557" stroke-width="2"/>
  <rect x="110" y="120" width="980" height="120" rx="22" fill="url(#paint0_linear)"/>
  <rect x="110" y="282" width="460" height="180" rx="22" fill="#132640"/>
  <rect x="630" y="282" width="460" height="180" rx="22" fill="#132640"/>
  <rect x="110" y="504" width="980" height="170" rx="22" fill="#132640"/>
  <text x="150" y="190" fill="#EFF6FF" font-family="Segoe UI, Arial, sans-serif" font-size="48" font-weight="700">React Analytics Dashboard</text>
  <text x="150" y="228" fill="#DBEAFE" font-family="Segoe UI, Arial, sans-serif" font-size="22">Interactive charts, filters, and exportable summaries</text>
  <rect x="152" y="334" width="220" height="18" rx="9" fill="#38BDF8"/>
  <rect x="152" y="374" width="340" height="18" rx="9" fill="#1D4ED8"/>
  <rect x="152" y="414" width="280" height="18" rx="9" fill="#60A5FA"/>
  <circle cx="856" cy="372" r="72" fill="#1D4ED8"/>
  <circle cx="856" cy="372" r="42" fill="#0F1E33"/>
  <path d="M856 300 A72 72 0 0 1 918 342" stroke="#93C5FD" stroke-width="20" stroke-linecap="round"/>
  <path d="M918 342 A72 72 0 0 1 884 436" stroke="#38BDF8" stroke-width="20" stroke-linecap="round"/>
  <text x="150" y="566" fill="#EFF6FF" font-family="Segoe UI, Arial, sans-serif" font-size="28" font-weight="600">Recent reports</text>
  <rect x="150" y="596" width="320" height="16" rx="8" fill="#475569"/>
  <rect x="150" y="628" width="270" height="16" rx="8" fill="#334155"/>
  <rect x="520" y="596" width="250" height="16" rx="8" fill="#475569"/>
  <rect x="520" y="628" width="300" height="16" rx="8" fill="#334155"/>
  <rect x="860" y="596" width="150" height="16" rx="8" fill="#475569"/>
  <rect x="860" y="628" width="190" height="16" rx="8" fill="#334155"/>
  <defs>
    <linearGradient id="paint0_linear" x1="110" y1="120" x2="1090" y2="240" gradientUnits="userSpaceOnUse">
      <stop stop-color="#2563EB"/>
      <stop offset="1" stop-color="#22D3EE"/>
    </linearGradient>
  </defs>
</svg>
