<svg width="1200" height="800" viewBox="0 0 1200 800" fill="none" xmlns="http://www.w3.org/2000/svg">
  <rect width="1200" height="800" fill="#0F172A"/>
  <rect x="70" y="70" width="1060" height="660" rx="28" fill="#111827" stroke="#334155" stroke-width="2"/>
  <rect x="110" y="120" width="260" height="540" rx="20" fill="#1E293B"/>
  <rect x="410" y="120" width="680" height="160" rx="20" fill="url(#paint0_linear)"/>
  <rect x="410" y="320" width="320" height="150" rx="20" fill="#1E293B"/>
  <rect x="770" y="320" width="320" height="150" rx="20" fill="#1E293B"/>
  <rect x="410" y="510" width="680" height="150" rx="20" fill="#1E293B"/>
  <circle cx="150" cy="160" r="22" fill="#22C55E"/>
  <circle cx="210" cy="160" r="22" fill="#38BDF8"/>
  <circle cx="270" cy="160" r="22" fill="#F97316"/>
  <rect x="140" y="240" width="200" height="18" rx="9" fill="#334155"/>
  <rect x="140" y="286" width="160" height="14" rx="7" fill="#475569"/>
  <rect x="140" y="326" width="180" height="14" rx="7" fill="#475569"/>
  <rect x="140" y="366" width="140" height="14" rx="7" fill="#475569"/>
  <text x="448" y="190" fill="#E2E8F0" font-family="Segoe UI, Arial, sans-serif" font-size="44" font-weight="700">Odoo Sales Suite</text>
  <text x="448" y="235" fill="#CBD5E1" font-family="Segoe UI, Arial, sans-serif" font-size="22">CRM, quotation flow, and performance reporting</text>
  <text x="450" y="382" fill="#F8FAFC" font-family="Segoe UI, Arial, sans-serif" font-size="28" font-weight="600">Lead Funnel</text>
  <text x="810" y="382" fill="#F8FAFC" font-family="Segoe UI, Arial, sans-serif" font-size="28" font-weight="600">Revenue Trend</text>
  <text x="450" y="572" fill="#F8FAFC" font-family="Segoe UI, Arial, sans-serif" font-size="28" font-weight="600">Activity Timeline</text>
  <defs>
    <linearGradient id="paint0_linear" x1="410" y1="120" x2="1090" y2="280" gradientUnits="userSpaceOnUse">
      <stop stop-color="#7C3AED"/>
      <stop offset="1" stop-color="#0EA5E9"/>
    </linearGradient>
  </defs>
</svg>
